<svg width="58" height="33" viewBox="0 0 58 33" fill="none" xmlns="http://www.w3.org/2000/svg">
<path d="M0.48 25V24.76L0.816 24.664C1.376 24.504 1.656 24.112 1.656 23.488V15.976C1.656 15.624 1.6 15.368 1.488 15.208C1.376 15.032 1.16 14.912 0.84 14.848L0.48 14.752V14.512L4.584 13.12L4.824 13.36L5.016 14.8C5.576 14.304 6.208 13.896 6.912 13.576C7.616 13.256 8.312 13.096 9 13.096C10.056 13.096 10.864 13.384 11.424 13.96C12 14.536 12.288 15.416 12.288 16.6V23.512C12.288 24.136 12.592 24.528 13.2 24.688L13.416 24.76V25H7.752V24.76L8.064 24.664C8.624 24.488 8.904 24.096 8.904 23.488V15.832C8.904 14.808 8.392 14.296 7.368 14.296C6.664 14.296 5.896 14.648 5.064 15.352V23.512C5.064 24.136 5.344 24.528 5.904 24.688L6.12 24.76V25H0.48ZM16.5184 25.36C15.5904 25.36 14.8064 25.096 14.1664 24.568C13.5424 24.04 13.2304 23.28 13.2304 22.288C13.2304 21.536 13.6144 20.848 14.3824 20.224C15.1504 19.584 16.3584 19.104 18.0064 18.784C18.2624 18.736 18.5504 18.688 18.8704 18.64C19.1904 18.576 19.5264 18.512 19.8784 18.448V16.552C19.8784 15.464 19.7424 14.704 19.4704 14.272C19.2144 13.824 18.8064 13.6 18.2464 13.6C17.8624 13.6 17.5584 13.728 17.3344 13.984C17.1104 14.224 16.9664 14.648 16.9024 15.256L16.8544 15.52C16.8224 16.208 16.6544 16.712 16.3504 17.032C16.0464 17.352 15.6704 17.512 15.2224 17.512C14.8064 17.512 14.4624 17.384 14.1904 17.128C13.9184 16.872 13.7824 16.528 13.7824 16.096C13.7824 15.44 14.0064 14.888 14.4544 14.44C14.9184 13.992 15.5264 13.656 16.2784 13.432C17.0304 13.208 17.8464 13.096 18.7264 13.096C20.1504 13.096 21.2464 13.448 22.0144 14.152C22.7984 14.84 23.1904 15.968 23.1904 17.536V22.84C23.1904 23.56 23.5264 23.92 24.1984 23.92H24.7264L24.9424 24.112C24.6384 24.496 24.3024 24.792 23.9344 25C23.5824 25.208 23.0784 25.312 22.4224 25.312C21.7184 25.312 21.1584 25.152 20.7424 24.832C20.3424 24.496 20.0784 24.056 19.9504 23.512C19.4704 24.024 18.9744 24.464 18.4624 24.832C17.9664 25.184 17.3184 25.36 16.5184 25.36ZM17.9824 23.896C18.3024 23.896 18.5984 23.824 18.8704 23.68C19.1584 23.52 19.4944 23.28 19.8784 22.96V18.928C19.7184 18.96 19.5584 18.992 19.3984 19.024C19.2384 19.056 19.0544 19.088 18.8464 19.12C18.1104 19.312 17.5184 19.64 17.0704 20.104C16.6384 20.552 16.4224 21.16 16.4224 21.928C16.4224 22.584 16.5744 23.08 16.8784 23.416C17.1824 23.736 17.5504 23.896 17.9824 23.896ZM23.7675 30.52V30.28L24.0555 30.184C24.6475 30.024 24.9435 29.64 24.9435 29.032V15.976C24.9435 15.624 24.8795 15.36 24.7515 15.184C24.6395 15.008 24.4235 14.888 24.1035 14.824L23.7675 14.752V14.512L27.8475 13.12L28.0875 13.36L28.3035 14.104C28.8315 13.784 29.4155 13.536 30.0555 13.36C30.7115 13.184 31.3835 13.096 32.0715 13.096C33.4475 13.096 34.5355 13.624 35.3355 14.68C36.1515 15.72 36.5595 17.216 36.5595 19.168C36.5595 21.088 36.1115 22.6 35.2155 23.704C34.3355 24.808 33.0875 25.36 31.4715 25.36C30.2075 25.36 29.1435 25.176 28.2795 24.808V28.96C28.2795 29.6 28.5675 30 29.1435 30.16L29.5995 30.28V30.52H23.7675ZM30.3195 24.664C31.1195 24.664 31.7515 24.248 32.2155 23.416C32.6955 22.584 32.9355 21.2 32.9355 19.264C32.9355 17.328 32.7115 15.976 32.2635 15.208C31.8155 14.424 31.1675 14.032 30.3195 14.032C29.7275 14.032 29.0715 14.224 28.3515 14.608V24.28C28.9595 24.536 29.6155 24.664 30.3195 24.664ZM39.8059 25.36C38.8779 25.36 38.0939 25.096 37.4539 24.568C36.8299 24.04 36.5179 23.28 36.5179 22.288C36.5179 21.536 36.9019 20.848 37.6699 20.224C38.4379 19.584 39.6459 19.104 41.2939 18.784C41.5499 18.736 41.8379 18.688 42.1579 18.64C42.4779 18.576 42.8139 18.512 43.1659 18.448V16.552C43.1659 15.464 43.0299 14.704 42.7579 14.272C42.5019 13.824 42.0939 13.6 41.5339 13.6C41.1499 13.6 40.8459 13.728 40.6219 13.984C40.3979 14.224 40.2539 14.648 40.1899 15.256L40.1419 15.52C40.1099 16.208 39.9419 16.712 39.6379 17.032C39.3339 17.352 38.9579 17.512 38.5099 17.512C38.0939 17.512 37.7499 17.384 37.4779 17.128C37.2059 16.872 37.0699 16.528 37.0699 16.096C37.0699 15.44 37.2939 14.888 37.7419 14.44C38.2059 13.992 38.8139 13.656 39.5659 13.432C40.3179 13.208 41.1339 13.096 42.0139 13.096C43.4379 13.096 44.5339 13.448 45.3019 14.152C46.0859 14.84 46.4779 15.968 46.4779 17.536V22.84C46.4779 23.56 46.8139 23.92 47.4859 23.92H48.0139L48.2299 24.112C47.9259 24.496 47.5899 24.792 47.2219 25C46.8699 25.208 46.3659 25.312 45.7099 25.312C45.0059 25.312 44.4459 25.152 44.0299 24.832C43.6299 24.496 43.3659 24.056 43.2379 23.512C42.7579 24.024 42.2619 24.464 41.7499 24.832C41.2539 25.184 40.6059 25.36 39.8059 25.36ZM41.2699 23.896C41.5899 23.896 41.8859 23.824 42.1579 23.68C42.4459 23.52 42.7819 23.28 43.1659 22.96V18.928C43.0059 18.96 42.8459 18.992 42.6859 19.024C42.5259 19.056 42.3419 19.088 42.1339 19.12C41.3979 19.312 40.8059 19.64 40.3579 20.104C39.9259 20.552 39.7099 21.16 39.7099 21.928C39.7099 22.584 39.8619 23.08 40.1659 23.416C40.4699 23.736 40.8379 23.896 41.2699 23.896ZM51.6758 25.36C50.8918 25.36 50.1878 25.264 49.5638 25.072C48.9398 24.896 48.3638 24.672 47.8358 24.4L47.8598 21.544H48.0998L48.9158 22.984C49.2678 23.624 49.6518 24.104 50.0678 24.424C50.4998 24.728 51.0438 24.88 51.6998 24.88C52.4678 24.88 53.0838 24.712 53.5478 24.376C54.0278 24.024 54.2678 23.56 54.2678 22.984C54.2678 22.456 54.0998 22.024 53.7638 21.688C53.4278 21.352 52.8038 21.048 51.8918 20.776L50.8838 20.464C49.9078 20.176 49.1398 19.728 48.5798 19.12C48.0198 18.512 47.7398 17.768 47.7398 16.888C47.7398 15.832 48.1558 14.936 48.9878 14.2C49.8198 13.464 51.0118 13.096 52.5638 13.096C53.1878 13.096 53.7718 13.168 54.3158 13.312C54.8758 13.44 55.4118 13.64 55.9238 13.912L55.7798 16.504H55.5398L54.6998 15.016C54.3958 14.488 54.0918 14.12 53.7878 13.912C53.4998 13.688 53.0598 13.576 52.4678 13.576C51.9238 13.576 51.4118 13.728 50.9318 14.032C50.4518 14.336 50.2118 14.768 50.2118 15.328C50.2118 15.872 50.4118 16.304 50.8118 16.624C51.2278 16.944 51.8358 17.24 52.6358 17.512L53.7158 17.824C54.8678 18.176 55.6918 18.664 56.1878 19.288C56.6838 19.896 56.9318 20.632 56.9318 21.496C56.9318 22.664 56.4678 23.6 55.5398 24.304C54.6278 25.008 53.3398 25.36 51.6758 25.36Z" fill="white"/>
</svg>
