<svg width="57" height="18" viewBox="0 0 57 18" fill="none" xmlns="http://www.w3.org/2000/svg">
<path d="M0.48 12V11.76L0.816 11.664C1.376 11.504 1.656 11.112 1.656 10.488V2.976C1.656 2.624 1.6 2.368 1.488 2.208C1.376 2.032 1.16 1.912 0.84 1.848L0.48 1.752V1.512L4.584 0.119999L4.824 0.36L5.016 1.8C5.576 1.304 6.208 0.895999 6.912 0.576C7.616 0.256 8.312 0.0959995 9 0.0959995C10.056 0.0959995 10.864 0.384 11.424 0.96C12 1.536 12.288 2.416 12.288 3.6V10.512C12.288 11.136 12.592 11.528 13.2 11.688L13.416 11.76V12H7.752V11.76L8.064 11.664C8.624 11.488 8.904 11.096 8.904 10.488V2.832C8.904 1.808 8.392 1.296 7.368 1.296C6.664 1.296 5.896 1.648 5.064 2.352V10.512C5.064 11.136 5.344 11.528 5.904 11.688L6.12 11.76V12H0.48ZM16.5184 12.36C15.5904 12.36 14.8064 12.096 14.1664 11.568C13.5424 11.04 13.2304 10.28 13.2304 9.288C13.2304 8.536 13.6144 7.848 14.3824 7.224C15.1504 6.584 16.3584 6.104 18.0064 5.784C18.2624 5.736 18.5504 5.688 18.8704 5.64C19.1904 5.576 19.5264 5.512 19.8784 5.448V3.552C19.8784 2.464 19.7424 1.704 19.4704 1.272C19.2144 0.823999 18.8064 0.599999 18.2464 0.599999C17.8624 0.599999 17.5584 0.727999 17.3344 0.983999C17.1104 1.224 16.9664 1.648 16.9024 2.256L16.8544 2.52C16.8224 3.208 16.6544 3.712 16.3504 4.032C16.0464 4.352 15.6704 4.512 15.2224 4.512C14.8064 4.512 14.4624 4.384 14.1904 4.128C13.9184 3.872 13.7824 3.528 13.7824 3.096C13.7824 2.44 14.0064 1.888 14.4544 1.44C14.9184 0.991999 15.5264 0.655999 16.2784 0.431999C17.0304 0.207999 17.8464 0.0959995 18.7264 0.0959995C20.1504 0.0959995 21.2464 0.447999 22.0144 1.152C22.7984 1.84 23.1904 2.968 23.1904 4.536V9.84C23.1904 10.56 23.5264 10.92 24.1984 10.92H24.7264L24.9424 11.112C24.6384 11.496 24.3024 11.792 23.9344 12C23.5824 12.208 23.0784 12.312 22.4224 12.312C21.7184 12.312 21.1584 12.152 20.7424 11.832C20.3424 11.496 20.0784 11.056 19.9504 10.512C19.4704 11.024 18.9744 11.464 18.4624 11.832C17.9664 12.184 17.3184 12.36 16.5184 12.36ZM17.9824 10.896C18.3024 10.896 18.5984 10.824 18.8704 10.68C19.1584 10.52 19.4944 10.28 19.8784 9.96V5.928C19.7184 5.96 19.5584 5.992 19.3984 6.024C19.2384 6.056 19.0544 6.088 18.8464 6.12C18.1104 6.312 17.5184 6.64 17.0704 7.104C16.6384 7.552 16.4224 8.16 16.4224 8.928C16.4224 9.584 16.5744 10.08 16.8784 10.416C17.1824 10.736 17.5504 10.896 17.9824 10.896ZM23.7675 17.52V17.28L24.0555 17.184C24.6475 17.024 24.9435 16.64 24.9435 16.032V2.976C24.9435 2.624 24.8795 2.36 24.7515 2.184C24.6395 2.008 24.4235 1.888 24.1035 1.824L23.7675 1.752V1.512L27.8475 0.119999L28.0875 0.36L28.3035 1.104C28.8315 0.783999 29.4155 0.535999 30.0555 0.36C30.7115 0.184 31.3835 0.0959995 32.0715 0.0959995C33.4475 0.0959995 34.5355 0.624 35.3355 1.68C36.1515 2.72 36.5595 4.216 36.5595 6.168C36.5595 8.088 36.1115 9.6 35.2155 10.704C34.3355 11.808 33.0875 12.36 31.4715 12.36C30.2075 12.36 29.1435 12.176 28.2795 11.808V15.96C28.2795 16.6 28.5675 17 29.1435 17.16L29.5995 17.28V17.52H23.7675ZM30.3195 11.664C31.1195 11.664 31.7515 11.248 32.2155 10.416C32.6955 9.584 32.9355 8.2 32.9355 6.264C32.9355 4.328 32.7115 2.976 32.2635 2.208C31.8155 1.424 31.1675 1.032 30.3195 1.032C29.7275 1.032 29.0715 1.224 28.3515 1.608V11.28C28.9595 11.536 29.6155 11.664 30.3195 11.664ZM39.8059 12.36C38.8779 12.36 38.0939 12.096 37.4539 11.568C36.8299 11.04 36.5179 10.28 36.5179 9.288C36.5179 8.536 36.9019 7.848 37.6699 7.224C38.4379 6.584 39.6459 6.104 41.2939 5.784C41.5499 5.736 41.8379 5.688 42.1579 5.64C42.4779 5.576 42.8139 5.512 43.1659 5.448V3.552C43.1659 2.464 43.0299 1.704 42.7579 1.272C42.5019 0.823999 42.0939 0.599999 41.5339 0.599999C41.1499 0.599999 40.8459 0.727999 40.6219 0.983999C40.3979 1.224 40.2539 1.648 40.1899 2.256L40.1419 2.52C40.1099 3.208 39.9419 3.712 39.6379 4.032C39.3339 4.352 38.9579 4.512 38.5099 4.512C38.0939 4.512 37.7499 4.384 37.4779 4.128C37.2059 3.872 37.0699 3.528 37.0699 3.096C37.0699 2.44 37.2939 1.888 37.7419 1.44C38.2059 0.991999 38.8139 0.655999 39.5659 0.431999C40.3179 0.207999 41.1339 0.0959995 42.0139 0.0959995C43.4379 0.0959995 44.5339 0.447999 45.3019 1.152C46.0859 1.84 46.4779 2.968 46.4779 4.536V9.84C46.4779 10.56 46.8139 10.92 47.4859 10.92H48.0139L48.2299 11.112C47.9259 11.496 47.5899 11.792 47.2219 12C46.8699 12.208 46.3659 12.312 45.7099 12.312C45.0059 12.312 44.4459 12.152 44.0299 11.832C43.6299 11.496 43.3659 11.056 43.2379 10.512C42.7579 11.024 42.2619 11.464 41.7499 11.832C41.2539 12.184 40.6059 12.36 39.8059 12.36ZM41.2699 10.896C41.5899 10.896 41.8859 10.824 42.1579 10.68C42.4459 10.52 42.7819 10.28 43.1659 9.96V5.928C43.0059 5.96 42.8459 5.992 42.6859 6.024C42.5259 6.056 42.3419 6.088 42.1339 6.12C41.3979 6.312 40.8059 6.64 40.3579 7.104C39.9259 7.552 39.7099 8.16 39.7099 8.928C39.7099 9.584 39.8619 10.08 40.1659 10.416C40.4699 10.736 40.8379 10.896 41.2699 10.896ZM51.6758 12.36C50.8918 12.36 50.1878 12.264 49.5638 12.072C48.9398 11.896 48.3638 11.672 47.8358 11.4L47.8598 8.544H48.0998L48.9158 9.984C49.2678 10.624 49.6518 11.104 50.0678 11.424C50.4998 11.728 51.0438 11.88 51.6998 11.88C52.4678 11.88 53.0838 11.712 53.5478 11.376C54.0278 11.024 54.2678 10.56 54.2678 9.984C54.2678 9.456 54.0998 9.024 53.7638 8.688C53.4278 8.352 52.8038 8.048 51.8918 7.776L50.8838 7.464C49.9078 7.176 49.1398 6.728 48.5798 6.12C48.0198 5.512 47.7398 4.768 47.7398 3.888C47.7398 2.832 48.1558 1.936 48.9878 1.2C49.8198 0.464 51.0118 0.0959995 52.5638 0.0959995C53.1878 0.0959995 53.7718 0.168 54.3158 0.312C54.8758 0.439999 55.4118 0.639999 55.9238 0.912L55.7798 3.504H55.5398L54.6998 2.016C54.3958 1.488 54.0918 1.12 53.7878 0.912C53.4998 0.688 53.0598 0.576 52.4678 0.576C51.9238 0.576 51.4118 0.728 50.9318 1.032C50.4518 1.336 50.2118 1.768 50.2118 2.328C50.2118 2.872 50.4118 3.304 50.8118 3.624C51.2278 3.944 51.8358 4.24 52.6358 4.512L53.7158 4.824C54.8678 5.176 55.6918 5.664 56.1878 6.288C56.6838 6.896 56.9318 7.632 56.9318 8.496C56.9318 9.664 56.4678 10.6 55.5398 11.304C54.6278 12.008 53.3398 12.36 51.6758 12.36Z" fill="black"/>
</svg>
